<?xml version="1.0" encoding="UTF-8" standalone="no"?>
<svg
   xmlns="http://www.w3.org/2000/svg"
   viewBox="0 0 360.416 360.416"
   y="0px"
   x="0px"
   id="Capa_1"
   version="1.1">
<g
   style="display:inline"
   id="g876">
	<path
   d="m 46.734375,273.96289 c 5.743086,-4.25933 11.654404,-8.45479 17.679687,-12.5332 6.025284,-4.07841 12.163404,-8.04028 18.359376,-11.82813 6.195971,-3.78784 12.449928,-7.40142 18.705082,-10.78906 6.25514,-3.38764 12.51202,-6.54799 18.71484,-9.42578 6.20282,-2.87779 12.35165,-5.47413 18.39062,-7.73242 6.03898,-2.2583 11.9688,-4.17983 17.73243,-5.70899 2.88181,-0.76458 5.7216,-1.43045 8.51367,-1.99219 2.79206,-0.56173 5.53623,-1.01809 8.22461,-1.36328 2.68838,-0.34518 5.32182,-0.57842 7.89258,-0.69336 2.57075,-0.11493 5.07838,-0.11144 7.51757,0.0176 4.27576,-0.27988 8.35145,-0.73046 12.23633,-1.34765 3.88489,-0.6172 7.57886,-1.40267 11.08985,-2.35547 3.51098,-0.9528 6.84008,-2.07268 9.99414,-3.35938 3.15405,-1.2867 6.13316,-2.73852 8.94726,-4.35742 2.81411,-1.6189 5.462,-3.40412 7.95313,-5.35352 2.49112,-1.94939 4.8266,-4.06361 7.01172,-6.34179 2.18512,-2.27819 4.22109,-4.7209 6.11718,-7.32617 1.89609,-2.60528 3.65136,-5.37404 5.27539,-8.30469 1.62403,-2.93066 3.11543,-6.02301 4.48438,-9.27735 1.36894,-3.25433 2.61526,-6.66978 3.74609,-10.24609 1.13084,-3.57631 2.14694,-7.3124 3.05664,-11.20898 0.9097,-3.89659 1.71244,-7.95281 2.41797,-12.16797 0.70554,-4.21516 1.31369,-8.59102 1.83203,-13.12305 0.51835,-4.53202 0.94679,-9.22117 1.29493,-14.06836 0.61417,-8.551441 0.88946,-17.78746 1.04687,-27.312498 -2.13525,8.633499 -16.29861,18.086653 -28.98242,26.552738 -6.014,4.013 -11.69258,7.80448 -16.26758,11.52148 -15.954,12.963 -46.37414,39.2348 -56.11914,48.4668 -9.237,8.751 -86.917829,62.01322 -107.798829,72.19922 -21.338,10.409 -42.134703,26.72548 -47.345703,37.14648 -1.168,2.336 -1.4185,3.81588 -0.8125,4.79688 0.265,0.428 0.813016,0.9375 1.916016,0.9375 1.313,0 3.111109,-0.75624 4.662109,-1.49024 0.002,0.188 0.03714,0.38113 0.119141,0.57813 0.463,1.119 1.955125,1.26171 3.203125,1.26172 3.411,0 10.520406,-1.40149 19.191406,-3.77149 z"
   style="display:inline;fill:#fdbb16;fill-opacity:1;stroke:none"
   id="path874" /><path
   d="m 282.36133,304.76367 c 0.3143,0.35587 1.60937,1.88086 1.60937,1.88086 0.0154,0.24072 -1.97776,-1.00097 -4.79882,-2.42383 -1.41054,-0.71143 -3.02811,-1.46766 -4.70508,-2.10742 -1.67697,-0.63976 -3.41225,-1.1632 -5.06055,-1.40625 -1.33796,-0.19729 -2.66069,-0.56575 -3.875,-1.10937 -1.21431,-0.54363 -2.32064,-1.2625 -3.22656,-2.15821 -0.90592,-0.8957 -1.61065,-1.96912 -2.02344,-3.22265 -0.2064,-0.62677 -0.34019,-1.29832 -0.38867,-2.01563 -0.0485,-0.7173 -0.0114,-1.4805 0.12109,-2.28906 0.20342,-1.24101 0.55104,-2.48375 0.75391,-3.66797 0.10143,-0.59211 0.16524,-1.17032 0.1582,-1.72461 -0.007,-0.55428 -0.0857,-1.08523 -0.27344,-1.58594 -0.18772,-0.5007 -0.48319,-0.97097 -0.92382,-1.40234 -0.44064,-0.43137 -1.0272,-0.82364 -1.79297,-1.16992 -0.76577,-0.34629 -1.71188,-0.64714 -2.875,-0.89258 -1.16313,-0.24544 -2.54308,-0.4356 -4.17578,-0.56445 l -0.0684,0.0273 c -0.0784,6.29936 -0.11165,11.78159 -0.0957,13.57813 0.03,3.403 6.45721,9.40943 15.53321,17.52343 3.53,3.155 7.81337,6.98658 8.98437,8.64258 -0.794,0.338 -1.58133,0.69236 -2.36133,1.06836 -1.208,0.168 -2.62003,0.18998 -4.20703,0.20898 -3.271,0.04 -7.32561,0.0973 -11.72461,1.61133 -3.65187,-3.15465 -8.13913,-7.6451 -11.82031,-11.88476 2e-5,3e-5 0.008,0.0156 0.008,0.0156 0,0 0.46436,0.0155 -1.46679,-1.07812 -1.93116,-1.09362 -6.25772,-3.29502 -15.8379,-7.73047 -0.67481,-0.31243 -1.31462,-0.71796 -1.91015,-1.19531 -0.59553,-0.47735 -1.14622,-1.02834 -1.64063,-1.63477 -0.98881,-1.21286 -1.75372,-2.648 -2.20703,-4.16211 -0.22665,-0.75705 -0.37552,-1.53195 -0.43554,-2.31055 -0.06,-0.77859 -0.0308,-1.55992 0.0976,-2.32421 0.12844,-0.7643 0.35658,-1.51241 0.69531,-2.22657 0.33874,-0.71415 0.78655,-1.39527 1.35743,-2.02343 1.04418,-1.14899 2.05876,-2.16627 2.76562,-3.13477 0.35343,-0.48425 0.62971,-0.95691 0.79492,-1.42578 0.16521,-0.46887 0.21922,-0.93489 0.12696,-1.4082 -0.0923,-0.47332 -0.331,-0.95358 -0.75,-1.45118 -0.41901,-0.49759 -1.01704,-1.01298 -1.83204,-1.55468 -1.62999,-1.0834 -4.12243,-2.27355 -7.75195,-3.65235 -0.055,2.158 -0.10806,4.80088 -0.16406,8.04688 -0.151,8.905 -0.21927,18.12745 -0.19727,20.56445 0.029,3.404 6.45816,9.41139 15.53516,17.52539 3.734,3.338 8.3162,7.43616 9.1582,8.91016 -1.521,0.946 -3.85214,0.97476 -6.74414,1.00976 -5.052,0.061 -11.97048,0.14324 -19.14648,5.61524 -4.179,3.187 -6.94136,7.74389 -7.56836,9.96289 -0.059,0.205 -0.23561,0.82884 0.15039,1.33984 0.215,0.283 0.54525,0.44531 0.90625,0.44531 0.301,0 0.60369,-0.11179 0.92969,-0.34179 l 0.73828,-0.52735 c 2.341,-1.677 7.82162,-5.60461 10.76562,-6.72461 3.979,-1.514 6.9018,-2.13086 10.0918,-2.13086 4.188,0 9.13864,1.07551 16.80664,3.0625 4.696,1.21601 8.70486,1.8086 12.25586,1.8086 4.619,0 7.97344,-0.97867 11.52344,-2.01367 4.131,-1.204 8.40081,-2.44922 15.38281,-2.44922 1.297,0 2.66441,0.0448 4.06641,0.13281 7.649,0.479 14.50287,4.461 17.79687,6.375 1.418,0.824 1.84655,1.07422 2.31055,1.07422 l 0.70508,-0.0293 0.26562,-0.58984 c 0.347,-0.771 -0.0886,-1.26114 -2.18164,-3.61914 -3.516,-3.959 -6.80633,-6.37931 -9.98633,-7.94531 1.944,-0.378 3.73899,-0.89755 5.58399,-1.43555 4.131,-1.204 8.40181,-2.44727 15.38281,-2.44727 1.297,0 2.66441,0.0429 4.06641,0.13086 7.649,0.479 14.50192,4.462 17.79492,6.375 1.419,0.825 1.8485,1.07227 2.3125,1.07227 l 0.70703,-0.0274 0.26367,-0.58984 c 0.347,-0.771 -0.0886,-1.26114 -2.18164,-3.61914 -7.444,-8.383 -13.88786,-9.927 -20.38086,-10.875 -2.55,-0.371 -4.47945,-1.22803 -4.68945,-2.08203 -0.173,-0.699 0.77515,-1.88206 2.53515,-3.16406 3.122,-2.274 6.26104,-3.42578 9.33203,-3.42578 5.441,0 8.82732,3.57168 9.19532,4.92968 0.166,0.616 0.65153,0.83399 1.01953,0.83399 0.375,0 0.87125,-0.22914 1.03125,-0.86914 0.301,-1.196 -0.0613,-6.43564 -4.48828,-8.80664 -2.211,-1.185 -5.63177,-1.83789 -9.63477,-1.83789 -9.456,0 -19.7437,3.32671 -28.2207,9.01171 -1.689,-0.342 -3.62266,-0.52734 -5.72266,-0.52734 -0.583,0 -1.16981,0.018 -1.75781,0.043 -2.94337,-2.35274 -6.74091,-6.03172 -10.32617,-9.81055 z"
   style="display:inline;fill:#fdbb16;fill-opacity:1;stroke:none"
   id="path1023" />
<path
   id="path1017"
   d="m 358.952,150.509 c 2.597,-11.582 1.212,-22.53 -0.127,-33.119 -1.144,-9.042 -2.223,-17.581 -0.591,-25.51 3.869,-18.796 -8.128,-39.427 -19.013,-55.301 -12.143,-17.708 -25.283,-20.22 -42.522,-21.836 -0.932,-0.087 -1.884,-0.132 -2.829,-0.132 -11.568,0 -21.231,6.474 -26.423,9.952 -1.347,0.902 -2.739,1.835 -3.147,1.917 -0.646,0.129 -2.158,0.149 -4.071,0.175 -5.138,0.068 -13.736,0.183 -23.974,2.376 -9.976,2.138 -17.97,7.219 -17.821,11.327 0.056,1.556 1.194,3.561 6.298,4.274 10.694,1.495 20.149,4.392 27.746,6.719 1.502,0.46 2.911,0.892 4.218,1.277 8.22,2.426 15.813,5.741 18.413,19.486 -0.93796,87.55846 -18.23188,135.32113 -86.64402,139.7993 -39.02712,-2.06441 -95.786296,27.97508 -141.73098,62.0497 -3.114,2.302 -9.293,6.265 -14.915,9.871 -22.224,14.26 -32.093,21.185 -31.813,24.534 0.154,1.855 1.38,4.066 6.345,4.066 3.048,0 6.762,-0.783 9.747,-1.412 1.549,-0.326 2.891,-0.609 3.818,-0.717 -0.338,0.709 -1.205,1.928 -1.82,2.794 -1.992,2.802 -4.052,5.7 -2.585,7.534 0.44,0.551 1.189,0.819 2.287,0.819 3.285,0 10.301,-2.437 17.086,-4.794 4.844,-1.683 9.419,-3.272 12.184,-3.825 4.222,-0.844 24.688,-11.443 44.479,-21.693 14.766,-7.647 31.502,-16.314 33.303,-16.512 3.507,0 31.84,-2.067 49.711,-7.174 3.983,-1.138 8.238,-1.715 12.647,-1.715 10.719,0 21.066,3.333 29.931,6.643 14.51806,5.51517 10.82367,8.0327 6.64693,12.62865 -4.56697,5.02534 -1.35628,13.3758 4.04226,15.87522 19.16035,8.8709 17.30478,8.80992 17.30478,8.80992 0,0 -6.16294,-11.26534 -7.29008,-20.70154 -0.29827,-2.4971 -0.39372,-4.73237 0.12618,-4.9397 l 12.91614,-5.15072 c 13.06162,1.03081 9.94126,6.04466 9.1276,11.0087 -1.06026,6.46846 4.04129,10.0053 9.39315,10.79448 6.59319,0.97221 14.5962,6.41826 14.56548,5.93682 0,0 -4.89934,-5.50688 -8.42091,-9.83574 -1.08823,-1.3377 -2.00159,-2.52089 -2.88001,-4.2783 -1.07192,-2.14453 -1.01066,-6.0584 -1.14288,-8.80718 -0.14288,-2.97063 -0.48135,-11.07098 -0.32268,-14.78661 v -0.103 c 6,-2.984 12.091,-6.5 19.155,-10.656 35.36,-20.796 63.799,-86.286 68.592,-107.668 z"
   style="display:inline;fill:#771c46;fill-opacity:1;stroke:none" /></g>















</svg>
